<svg width="20mm" height="30.146mm" version="1.1" viewBox="0 0 20 30.146" xmlns="http://www.w3.org/2000/svg">
 <g transform="translate(-86.195 -104.7)">
  <g transform="matrix(.53414 0 0 .53414 70.913 49.568)">
   <g fill="#fff">
    <path d="m66.034 122.7h-37.398a18.722 18.722 0 0 0-0.02643 0.52631 18.722 18.722 0 0 0 18.722 18.722 18.722 18.722 0 0 0 18.722-18.722 18.722 18.722 0 0 0-0.01882-0.52631z" color="#000000" stroke-width=".15037" style="-inkscape-stroke:none"/>
    <path d="m30.943 141.6v2h32.174v-2z" color="#000000" style="-inkscape-stroke:none"/>
    <path d="m40.738 142-6.9004 11.951 1.7305 1 6.9023-11.951z" color="#000000" style="-inkscape-stroke:none"/>
    <g fill="#fff" fill-rule="evenodd">
     <path d="m32.395 158.45-0.0041-7.9929 6.9282 4z" color="#000000" stroke-width=".8pt" style="-inkscape-stroke:none"/>
     <path d="m31.857 149.54 0.0039 9.8398 0.80078-0.46094 7.7246-4.4551zm1.0664 1.8457 5.3281 3.0762-5.3242 3.0723z" color="#000000" style="-inkscape-stroke:none"/>
    </g>
    <path d="m56.547 103.22-1.5645 1.2461s0.33514 0.43498 0.48828 1.0391c0.15315 0.60408 0.18926 1.209-0.57617 1.9688-1.1965 1.1876-1.5061 2.5227-1.4004 3.4902 0.10574 0.96749 0.5918 1.6426 0.5918 1.6426l1.6211-1.1699s-0.17552-0.2403-0.22461-0.68946c-0.04909-0.44915-0.0062-1.0331 0.82031-1.8535 1.2576-1.2483 1.3774-2.8142 1.1074-3.8789s-0.86328-1.7949-0.86328-1.7949z" color="#000000" style="-inkscape-stroke:none"/>
    <path d="m48.918 103.22-1.5645 1.2461s0.33513 0.43498 0.48828 1.0391 0.18926 1.209-0.57617 1.9688c-1.1965 1.1876-1.5042 2.5227-1.3984 3.4902 0.10574 0.96749 0.58984 1.6426 0.58984 1.6426l1.623-1.1699s-0.17552-0.2403-0.22461-0.68946c-0.04909-0.44915-0.0062-1.0331 0.82031-1.8535 1.2576-1.2483 1.3754-2.8142 1.1055-3.8789s-0.86328-1.7949-0.86328-1.7949z" color="#000000" style="-inkscape-stroke:none"/>
    <path d="m41.291 103.22-1.5664 1.2461s0.33709 0.43498 0.49024 1.0391 0.18926 1.209-0.57617 1.9688c-1.1965 1.1876-1.5061 2.5227-1.4004 3.4902s0.5918 1.6426 0.5918 1.6426l1.6211-1.1699s-0.17552-0.2403-0.22461-0.68946c-0.04909-0.44916-0.0062-1.0331 0.82031-1.8535 1.2576-1.2483 1.3754-2.8142 1.1055-3.8789-0.26993-1.0647-0.86133-1.7949-0.86133-1.7949z" color="#000000" style="-inkscape-stroke:none"/>
    <path d="m54.896 113.47c-1.4548 0-2.706 0.87699-3.5293 2.0957-0.82334 1.2187-1.291 2.8147-1.291 4.5586v8e-3c5.87e-4 0.0787 0.0036 0.15349 0.0059 0.22656l1.998-0.0605c-0.0019-0.0604-0.0034-0.11856-0.0039-0.17383v-2e-3c-1.6e-5 -2e-3 1.4e-5 -4e-3 0-6e-3 0.0015-1.3755 0.38921-2.6056 0.94726-3.4316 0.55917-0.82768 1.2182-1.2148 1.873-1.2148 0.65485 0 1.3139 0.38716 1.873 1.2148s0.94727 2.0607 0.94727 3.4394h2c0-1.7439-0.46768-3.3399-1.291-4.5586-0.82334-1.2187-2.0745-2.0957-3.5293-2.0957z" color="#000000" style="-inkscape-stroke:none;paint-order:stroke fill markers"/>
    <path d="m47.27 113.47c-1.4548 0-2.706 0.87699-3.5293 2.0957-0.82334 1.2187-1.291 2.8147-1.291 4.5586h2c0-1.3788 0.38809-2.6118 0.94726-3.4394 0.55917-0.82768 1.2182-1.2148 1.873-1.2148 0.65484-1e-5 1.3119 0.38716 1.8711 1.2148 0.55802 0.82598 0.94567 2.0563 0.94727 3.4316-0.0018 0.0584-0.0035 0.11387-0.0059 0.16406l1.998 0.0957c0.0037-0.0788 0.0057-0.15249 0.0078-0.22071l2e-3 -0.0156v-0.0156c0-1.7439-0.46767-3.3399-1.291-4.5586-0.82334-1.2187-2.0745-2.0957-3.5293-2.0957z" color="#000000" style="-inkscape-stroke:none"/>
    <path d="m39.641 113.47c-1.4548 0-2.706 0.87699-3.5293 2.0957-0.82334 1.2187-1.291 2.8147-1.291 4.5586v0.012c8.96e-4 0.0721 0.0037 0.15312 0.0078 0.24024l1.9961-0.0957c-0.0021-0.0456-0.0031-0.0976-0.0039-0.15625v-2e-3c3.87e-4 -1.378 0.38837-2.6102 0.94727-3.4375 0.55917-0.82768 1.2182-1.2148 1.873-1.2148 0.65484 0 1.3139 0.38716 1.873 1.2148s0.94726 2.0607 0.94726 3.4394h2c0-1.7439-0.46768-3.3399-1.291-4.5586s-2.0745-2.0957-3.5293-2.0957z" color="#000000" style="-inkscape-stroke:none"/>
    <path d="m57.557 119.33v2h5.8418v-2z" color="#000000" style="-inkscape-stroke:none"/>
    <path d="m31.137 119.33v2h5.8418v-2z" color="#000000" style="-inkscape-stroke:none"/>
   </g>
   <path d="m35.826 119.95v0.77149h22.883v-0.77149z" color="#000000" fill-opacity="0" style="-inkscape-stroke:none"/>
   <path d="m59.064 150.73c-2.4534 0-4.4629 2.0115-4.4629 4.4648s2.0095 4.4629 4.4629 4.4629 4.4629-2.0095 4.4629-4.4629-2.0095-4.4648-4.4629-4.4648zm0 2c1.3725 0 2.4629 1.0924 2.4629 2.4648s-1.0904 2.4629-2.4629 2.4629-2.4629-1.0904-2.4629-2.4629 1.0904-2.4648 2.4629-2.4648z" color="#000000" fill="#fff" style="-inkscape-stroke:none;paint-order:stroke fill markers"/>
   <path d="m54.932 142.14-1.8359 0.79687 3.752 8.6582 1.8359-0.79493z" color="#000000" fill="#fff" style="-inkscape-stroke:none"/>
  </g>
 </g>
</svg>
