<svg id="Capa_1" enable-background="new 0 0 511.728 511.728" height="512" viewBox="0 0 511.728 511.728" width="512" xmlns="http://www.w3.org/2000/svg"><path d="m228.871 504.5v-50.088l-29.153-6.478v56.566z" fill="#878b91"/><path d="m312.01 504.5v-56.566l-29.153 6.478v50.088z" fill="#878b91"/><path d="m102.542 50.49c0-11.848 7.837-22.269 19.228-25.532 24.567-7.037 71.513-17.458 134.094-17.458 64.244 0 110.286 10.267 134.291 17.3 11.296 3.31 19.031 13.704 19.031 25.473v327.727c0 11.848-7.837 22.269-19.228 25.532-24.566 7.037-71.513 17.458-134.094 17.458-64.244 0-110.286-10.267-134.291-17.3-11.296-3.31-19.031-13.704-19.031-25.473z" fill="#e2faff"/><path d="m390.155 24.8c-24.005-7.033-70.047-17.3-134.291-17.3-5.539 0-10.949.085-16.238.239 55.521 1.571 95.667 10.655 117.529 17.061 11.296 3.31 19.031 13.704 19.031 25.473v327.727c0 11.848-7.837 22.269-19.228 25.532-22.392 6.414-63.385 15.636-117.855 17.219 5.443.154 11.026.239 16.762.239 62.581 0 109.527-10.421 134.094-17.458 11.391-3.263 19.228-13.684 19.228-25.532v-327.727c-.002-11.769-7.736-22.163-19.032-25.473z" fill="#cbf4ff"/><path d="m363.05 400.273v34.338c0 7.466-4.905 14.058-12.07 16.159-16.762 4.913-50.172 12.602-95.116 12.602-46.074 0-78.756-7.553-95.152-12.471-7.14-2.141-12.034-8.695-12.034-16.148v-34.479h214.372z" fill="#82d5f2"/><path d="m330.05 400.273v34.338c0 7.466-4.905 14.058-12.07 16.159-14.672 4.301-42.1 10.728-78.854 12.264 5.364.219 10.945.338 16.738.338 44.944 0 78.354-7.689 95.116-12.602 7.165-2.1 12.07-8.693 12.07-16.159v-34.338z" fill="#67c6e4"/><ellipse cx="255.864" cy="131.961" fill="#82d5f2" rx="49.872" ry="49.866"/><path d="m102.542 308.121v70.094c0 11.77 7.735 22.164 19.031 25.473 24.005 7.033 70.047 17.3 134.291 17.3 62.581 0 109.527-10.421 134.094-17.458 11.391-3.263 19.228-13.684 19.228-25.532v-69.878h-306.644z" fill="#baeefc"/><path d="m376.185 308.121v69.879c0 11.848-7.837 22.269-19.228 25.532-22.392 6.414-63.385 15.636-117.855 17.219 5.443.154 11.026.239 16.762.239 62.581 0 109.527-10.421 134.094-17.458 11.391-3.263 19.228-13.684 19.228-25.532v-69.878h-33.001z" fill="#a2e1f8"/><path d="m313.235 131.961c0-31.632-25.737-57.366-57.372-57.366s-57.372 25.734-57.372 57.366 25.737 57.366 57.372 57.366 57.372-25.734 57.372-57.366zm-99.743 0c0-23.361 19.008-42.366 42.372-42.366s42.372 19.005 42.372 42.366-19.008 42.366-42.372 42.366-42.372-19.005-42.372-42.366z"/><path d="m275.702 122.48c6.81-6.809-3.786-17.427-10.605-10.607l-15.037 15.035c-6.713 6.712 3.738 17.475 10.605 10.607z"/><path d="m416.686 50.273c0-15.023-10.043-28.458-24.422-32.67-22.437-6.574-69.991-17.603-136.4-17.603-15.982 0-32.011.681-47.642 2.023-9.595.824-8.324 15.772 1.283 14.945 15.206-1.306 30.803-1.968 46.359-1.968 64.536 0 110.517 10.649 132.182 16.998 8.031 2.353 13.64 9.868 13.64 18.276v250.348h-291.644v-250.132c0-8.461 5.672-15.996 13.793-18.322 11.309-3.239 23.561-6.107 36.416-8.525 9.464-1.78 6.705-16.528-2.773-14.741-13.31 2.503-26.019 5.48-37.772 8.847-14.521 4.159-24.663 17.623-24.663 32.742v327.726c0 15.023 10.043 28.458 24.422 32.67 5.667 1.661 12.942 3.605 21.713 5.585v18.281c0 10.837 6.984 20.214 17.38 23.333 7.447 2.233 18.809 5.175 33.661 7.673v38.741c0 9.63 15 9.644 15 0v-36.56c4.486.556 9.207 1.055 14.153 1.478v35.082c0 9.63 15 9.644 15 0v-34.09c6.213.293 12.708.461 19.493.461 6.55 0 13.051-.16 19.493-.475v34.104c0 9.63 15 9.644 15 0v-35.135c4.758-.42 9.477-.929 14.153-1.525v36.66c0 9.63 15 9.644 15 0v-38.899c3.651-.626 7.275-1.3 10.862-2.036 9.434-1.936 6.432-16.631-3.016-14.693-53.191 10.916-112.262 10.508-164.49-5.155-4.001-1.2-6.689-4.803-6.689-8.965v-15.181c25.125 4.743 58.83 8.919 99.687 8.919 40.222 0 74.192-4.317 99.687-9.174v15.295c0 9.63 15 9.644 15 0v-18.411c8.587-1.936 15.796-3.833 21.472-5.458 14.521-4.159 24.663-17.623 24.663-32.742v-327.727zm-28.793 346.048c-22.385 6.412-69.304 17.168-132.029 17.168-64.536 0-110.517-10.649-132.182-16.998-8.031-2.353-13.64-9.868-13.64-18.276v-62.595h291.644v62.38c0 8.461-5.672 15.995-13.793 18.321z"/><path d="m203.737 351.74c-9.652 0-9.668 15 0 15 9.651 0 9.667-15 0-15z"/><path d="m255.864 351.74c-9.652 0-9.668 15 0 15 9.652 0 9.668-15 0-15z"/><path d="m307.991 351.74c-9.652 0-9.668 15 0 15 9.652 0 9.668-15 0-15z"/></svg>